<svg xmlns="http://www.w3.org/2000/svg" xmlns:xlink="http://www.w3.org/1999/xlink" width="5000" zoomAndPan="magnify" viewBox="0 0 3750 749.999995" height="1000" preserveAspectRatio="xMidYMid meet" version="1.0"><defs><g/></defs><g fill="#38b6ff" fill-opacity="1"><g transform="translate(19.450597, 515.002644)"><g><path d="M 221.644531 -6.75 C 224.457031 -1.125 229.519531 0 232.332031 0 L 288.585938 0 C 293.085938 0 298.710938 -3.375 298.710938 -10.125 L 191.828125 -213.203125 L 279.585938 -344.277344 C 279.585938 -351.027344 273.960938 -354.402344 269.460938 -354.402344 L 208.703125 -354.402344 C 205.890625 -354.402344 201.390625 -353.277344 198.015625 -347.652344 L 107.445312 -210.390625 L 107.445312 -344.277344 C 107.445312 -351.027344 101.820312 -354.402344 97.320312 -354.402344 L 45.003906 -354.402344 C 40.503906 -354.402344 34.878906 -351.027344 34.878906 -344.277344 L 34.878906 -10.125 C 34.878906 -3.375 40.503906 0 45.003906 0 L 97.320312 0 C 101.820312 0 107.445312 -3.375 107.445312 -10.125 L 107.445312 -87.195312 L 148.511719 -147.386719 Z M 221.644531 -6.75 "/></g></g></g><g fill="#ffffff" fill-opacity="1"><g transform="translate(336.157913, 515.002644)"><g><path d="M 162.574219 -358.902344 C 29.816406 -358.902344 29.253906 -246.957031 29.253906 -246.957031 L 29.253906 -107.445312 C 29.253906 -107.445312 29.816406 4.5 162.574219 4.5 C 295.335938 4.5 295.898438 -107.445312 295.898438 -107.445312 L 295.898438 -246.957031 C 295.898438 -246.957031 295.335938 -358.902344 162.574219 -358.902344 Z M 162.574219 -61.878906 C 144.574219 -61.878906 101.820312 -67.503906 101.820312 -123.199219 L 101.820312 -231.207031 C 101.820312 -286.898438 144.574219 -292.523438 162.574219 -292.523438 C 180.578125 -292.523438 223.332031 -286.898438 223.332031 -231.207031 L 223.332031 -123.199219 C 223.332031 -67.503906 180.578125 -61.878906 162.574219 -61.878906 Z M 162.574219 -61.878906 "/></g></g></g><g fill="#ffffff" fill-opacity="1"><g transform="translate(661.308526, 515.002644)"><g><path d="M 205.328125 -6.75 C 207.015625 -2.25 210.953125 0 214.890625 0 L 264.957031 0 C 269.460938 0 275.085938 -3.375 275.085938 -10.125 L 230.082031 -103.507812 C 280.148438 -136.136719 281.273438 -195.203125 281.273438 -195.203125 L 281.273438 -241.894531 C 281.273438 -241.894531 279.585938 -354.402344 147.386719 -354.402344 L 45.003906 -354.402344 C 40.503906 -354.402344 34.878906 -351.027344 34.878906 -344.277344 L 34.878906 -10.125 C 34.878906 -3.375 40.503906 0 45.003906 0 L 97.320312 0 C 101.820312 0 107.445312 -3.375 107.445312 -10.125 L 107.445312 -82.132812 L 147.386719 -82.132812 C 155.261719 -82.132812 162.574219 -82.132812 169.886719 -83.257812 Z M 147.386719 -288.023438 C 165.386719 -288.023438 208.703125 -283.523438 208.703125 -227.832031 L 208.703125 -209.828125 C 208.703125 -154.136719 165.386719 -148.511719 147.386719 -148.511719 L 107.445312 -148.511719 L 107.445312 -288.023438 Z M 147.386719 -288.023438 "/></g></g></g><g fill="#ffffff" fill-opacity="1"><g transform="translate(960.582061, 515.002644)"><g><path d="M 128.261719 -354.402344 C 124.886719 -354.402344 120.382812 -352.152344 118.695312 -347.652344 L 15.1875 -10.125 C 15.1875 -3.375 20.8125 0 25.316406 0 L 76.507812 0 C 81.007812 0 85.507812 -3.375 87.757812 -10.125 L 100.695312 -54.003906 L 230.644531 -54.003906 L 244.144531 -10.125 C 246.394531 -3.375 250.894531 0 255.394531 0 L 306.585938 0 C 311.085938 0 316.714844 -3.375 316.714844 -10.125 L 213.203125 -347.652344 C 211.515625 -352.152344 207.015625 -354.402344 203.640625 -354.402344 Z M 165.949219 -266.644531 L 210.390625 -120.382812 L 120.945312 -120.382812 Z M 165.949219 -266.644531 "/></g></g></g><g fill="#ffffff" fill-opacity="1"><g transform="translate(1292.483142, 515.002644)"><g><path d="M 214.890625 -286.335938 C 217.140625 -285.773438 223.894531 -284.085938 225.582031 -284.085938 C 229.519531 -284.085938 231.207031 -285.773438 232.894531 -288.585938 L 248.644531 -325.714844 C 249.207031 -327.402344 250.332031 -330.214844 250.332031 -332.464844 C 250.332031 -335.277344 249.769531 -338.089844 245.832031 -339.777344 C 213.765625 -354.402344 190.140625 -358.902344 149.636719 -358.902344 C 81.570312 -358.902344 26.441406 -328.527344 26.441406 -255.957031 C 26.441406 -137.261719 211.515625 -164.824219 211.515625 -97.882812 C 211.515625 -81.007812 207.015625 -60.753906 153.011719 -60.753906 C 127.136719 -60.753906 93.945312 -68.628906 64.691406 -84.945312 C 62.441406 -86.070312 60.753906 -86.632812 59.066406 -86.632812 C 55.128906 -86.632812 53.441406 -84.382812 51.753906 -81.570312 L 30.378906 -42.753906 C 29.253906 -41.066406 28.691406 -39.378906 28.691406 -37.128906 C 28.691406 -34.316406 29.253906 -31.503906 33.191406 -28.691406 C 79.320312 3.375 150.199219 4.5 150.199219 4.5 C 273.960938 4.5 283.523438 -78.195312 283.523438 -98.445312 C 283.523438 -225.582031 98.445312 -198.015625 98.445312 -258.207031 C 98.445312 -286.898438 120.945312 -293.648438 156.386719 -293.648438 C 177.203125 -293.648438 197.453125 -290.273438 214.890625 -286.335938 Z M 214.890625 -286.335938 "/></g></g></g><g fill="#ffffff" fill-opacity="1"><g transform="translate(1599.632255, 515.002644)"><g><path d="M 128.261719 -354.402344 C 124.886719 -354.402344 120.382812 -352.152344 118.695312 -347.652344 L 15.1875 -10.125 C 15.1875 -3.375 20.8125 0 25.316406 0 L 76.507812 0 C 81.007812 0 85.507812 -3.375 87.757812 -10.125 L 100.695312 -54.003906 L 230.644531 -54.003906 L 244.144531 -10.125 C 246.394531 -3.375 250.894531 0 255.394531 0 L 306.585938 0 C 311.085938 0 316.714844 -3.375 316.714844 -10.125 L 213.203125 -347.652344 C 211.515625 -352.152344 207.015625 -354.402344 203.640625 -354.402344 Z M 165.949219 -266.644531 L 210.390625 -120.382812 L 120.945312 -120.382812 Z M 165.949219 -266.644531 "/></g></g></g><g fill="#ffffff" fill-opacity="1"><g transform="translate(1931.5334, 515.002644)"><g><path d="M 142.886719 -288.023438 C 160.886719 -288.023438 203.640625 -283.523438 203.640625 -227.832031 L 203.640625 -126.574219 C 203.640625 -70.878906 160.886719 -66.378906 142.886719 -66.378906 L 107.445312 -66.378906 L 107.445312 -288.023438 Z M 144.574219 0 C 275.648438 0 276.210938 -112.507812 276.210938 -112.507812 L 276.210938 -241.894531 C 276.210938 -241.894531 275.648438 -354.402344 144.574219 -354.402344 L 45.003906 -354.402344 C 40.503906 -354.402344 34.878906 -351.027344 34.878906 -344.277344 L 34.878906 -10.125 C 34.878906 -3.375 40.503906 0 45.003906 0 Z M 144.574219 0 "/></g></g></g><g fill="#ffffff" fill-opacity="1"><g transform="translate(2236.994941, 515.002644)"><g><path d="M 162.574219 -358.902344 C 29.816406 -358.902344 29.253906 -246.957031 29.253906 -246.957031 L 29.253906 -107.445312 C 29.253906 -107.445312 29.816406 4.5 162.574219 4.5 C 295.335938 4.5 295.898438 -107.445312 295.898438 -107.445312 L 295.898438 -246.957031 C 295.898438 -246.957031 295.335938 -358.902344 162.574219 -358.902344 Z M 162.574219 -61.878906 C 144.574219 -61.878906 101.820312 -67.503906 101.820312 -123.199219 L 101.820312 -231.207031 C 101.820312 -286.898438 144.574219 -292.523438 162.574219 -292.523438 C 180.578125 -292.523438 223.332031 -286.898438 223.332031 -231.207031 L 223.332031 -123.199219 C 223.332031 -67.503906 180.578125 -61.878906 162.574219 -61.878906 Z M 162.574219 -61.878906 "/></g></g></g><g fill="#ffffff" fill-opacity="1"><g transform="translate(2562.145472, 515.002644)"><g><path d="M 196.890625 -354.402344 C 192.390625 -354.402344 187.890625 -351.027344 186.765625 -344.277344 L 136.136719 -89.445312 L 87.757812 -344.277344 C 86.632812 -351.027344 81.007812 -354.402344 76.507812 -354.402344 L 25.316406 -354.402344 C 20.8125 -354.402344 15.1875 -351.027344 15.1875 -344.277344 L 90.570312 -6.75 C 92.257812 -2.25 96.757812 0 100.132812 0 L 174.953125 0 C 178.328125 0 182.828125 -2.25 184.515625 -6.75 L 227.832031 -227.269531 L 271.148438 -6.75 C 272.835938 -2.25 277.335938 0 280.710938 0 L 355.527344 0 C 358.902344 0 363.402344 -2.25 365.09375 -6.75 L 440.472656 -344.277344 C 440.472656 -351.027344 434.847656 -354.402344 430.347656 -354.402344 L 379.15625 -354.402344 C 374.65625 -354.402344 369.03125 -351.027344 367.90625 -344.277344 L 319.527344 -89.445312 L 268.898438 -344.277344 C 267.773438 -351.027344 263.269531 -354.402344 258.769531 -354.402344 Z M 196.890625 -354.402344 "/></g></g></g><g fill="#ffffff" fill-opacity="1"><g transform="translate(3017.806316, 515.002644)"><g><path d="M 107.445312 -344.277344 C 107.445312 -351.027344 101.820312 -354.402344 97.320312 -354.402344 L 45.003906 -354.402344 C 40.503906 -354.402344 34.878906 -351.027344 34.878906 -344.277344 L 34.878906 -10.125 C 34.878906 -3.375 40.503906 0 45.003906 0 L 97.320312 0 C 101.820312 0 107.445312 -3.375 107.445312 -10.125 Z M 107.445312 -344.277344 "/></g></g></g><g fill="#ffffff" fill-opacity="1"><g transform="translate(3160.130071, 515.002644)"><g><path d="M 32.066406 -123.761719 C 32.066406 -84.945312 48.941406 4.5 169.324219 4.5 C 196.328125 4.5 231.207031 0 257.082031 -9 C 261.582031 -10.6875 262.707031 -15.1875 262.707031 -16.875 L 254.832031 -65.816406 C 253.144531 -70.316406 249.769531 -71.441406 246.957031 -71.441406 C 223.894531 -65.253906 200.265625 -61.878906 181.140625 -61.878906 C 146.261719 -61.878906 104.070312 -77.070312 104.070312 -130.511719 L 104.070312 -223.894531 C 104.070312 -277.335938 146.261719 -292.523438 181.140625 -292.523438 C 200.265625 -292.523438 223.894531 -289.148438 246.957031 -282.960938 C 249.769531 -282.960938 253.144531 -284.085938 254.832031 -288.585938 L 262.707031 -337.527344 C 262.707031 -339.214844 261.582031 -343.714844 257.082031 -345.402344 C 231.207031 -354.402344 196.328125 -358.902344 169.324219 -358.902344 C 48.941406 -358.902344 32.066406 -269.460938 32.066406 -230.644531 Z M 32.066406 -123.761719 "/></g></g></g><g fill="#ffffff" fill-opacity="1"><g transform="translate(3454.903226, 515.002644)"><g><path d="M 103.507812 -66.378906 L 241.894531 -277.898438 C 244.144531 -280.710938 246.394531 -285.210938 246.394531 -288.023438 L 246.394531 -344.277344 C 246.394531 -348.777344 243.019531 -354.402344 236.269531 -354.402344 L 39.378906 -354.402344 C 32.628906 -354.402344 29.253906 -348.777344 29.253906 -344.277344 L 29.253906 -298.148438 C 29.253906 -293.648438 32.628906 -288.023438 39.378906 -288.023438 L 172.140625 -288.023438 L 33.753906 -76.507812 C 31.503906 -73.695312 29.253906 -69.191406 29.253906 -66.378906 L 29.253906 -10.125 C 29.253906 -5.625 32.628906 0 39.378906 0 L 236.269531 0 C 243.019531 0 246.394531 -5.625 246.394531 -10.125 L 246.394531 -56.253906 C 246.394531 -60.753906 243.019531 -66.378906 236.269531 -66.378906 Z M 103.507812 -66.378906 "/></g></g></g></svg>